<mxfile host="app.diagrams.net" modified="2023-08-30T16:23:46.947Z" agent="Mozilla/5.0 (Macintosh; Intel Mac OS X 10_15_7) AppleWebKit/537.36 (KHTML, like Gecko) Chrome/115.0.0.0 Safari/537.36" version="21.7.1" etag="Oc0NwhMHk-tIpEkWts2C" type="github">
  <diagram name="페이지-1" id="hUuX7BJEXC9vG-C4TYmu">
    <mxGraphModel>
      <root>
        <mxCell id="0" />
        <mxCell id="1" parent="0" />
      </root>
    </mxGraphModel>
  </diagram>
</mxfile>
